<?xml version="1.0" encoding="utf-8"?>
<svg xmlns="http://www.w3.org/2000/svg" viewBox="0 0 50 50" width="500" height="500">
  <path d="M3.90625 2.96875C3.863281 2.976563 3.820313 2.988281 3.78125 3C3.40625 3.066406 3.105469 3.339844 3 3.703125C2.894531 4.070313 3.003906 4.460938 3.28125 4.71875L45.28125 46.71875C45.679688 47.117188 46.320313 47.117188 46.71875 46.71875C47.117188 46.320313 47.117188 45.679688 46.71875 45.28125L39.09375 37.65625C44.765625 34.25 48.539063 29.957031 48.8125 29.59375C49.113281 29.292969 49.113281 28.710938 48.8125 28.3125C48.3125 27.8125 38 16 25 16C22.726563 16 20.523438 16.367188 18.40625 16.96875L4.71875 3.28125C4.511719 3.058594 4.210938 2.945313 3.90625 2.96875 Z M 25 18C27.601563 18 30.199219 18.507813 32.5 19.40625C34.101563 21.207031 35 23.601563 35 26C35 28.117188 34.300781 30.121094 33.1875 31.75L29.53125 28.09375C29.832031 27.457031 30 26.734375 30 26C30 23.199219 27.800781 21 25 21C24.265625 21 23.542969 21.167969 22.90625 21.46875L20.0625 18.625C21.632813 18.246094 23.273438 18 25 18 Z M 14.5 18.5C6.800781 22 1.488281 28.011719 1.1875 28.3125C0.886719 28.710938 0.886719 29.195313 1.1875 29.59375C1.6875 30.195313 12 42 25 42C28.800781 42 32.398438 40.992188 35.5 39.59375L34 38C31.199219 39.199219 28.199219 40 25 40C14.601563 40 5.707031 31.5 3.40625 29C4.90625 27.5 8.886719 23.605469 14.1875 20.90625C13.386719 22.40625 13 24.199219 13 26C13 32.601563 18.398438 38 25 38C27.5 38 29.914063 37.207031 31.8125 35.90625L30.40625 34.5C28.804688 35.398438 27 36 25 36C19.5 36 15 31.5 15 26C15 24.101563 15.59375 22.195313 16.59375 20.59375 Z M 35.8125 20.90625C41.113281 23.605469 45.09375 27.5 46.59375 29C45.257813 30.335938 42.023438 33.558594 37.59375 36.15625L34.625 33.1875C36.109375 31.183594 37 28.71875 37 26C37 24.199219 36.613281 22.40625 35.8125 20.90625 Z M 20.3125 24.3125C20.113281 24.914063 20 25.398438 20 26C20 28.800781 22.199219 31 25 31C25.601563 31 26.085938 30.886719 26.6875 30.6875Z" fill="#FFFFFF" />
</svg>