<?xml version="1.0" encoding="utf-8"?>
<svg xmlns="http://www.w3.org/2000/svg" viewBox="0 0 128 128" width="512" height="512">
  <path d="M83.5625 24.199219C82.8 24.199219 82.05 24.499609 81.5 25.099609C80.3 26.299609 80.3 28.200781 81.5 29.300781L87.800781 35.599609C85.100781 36.699609 80.999219 38.1 76.199219 38.5C69.499219 39.1 60.700391 37.6 57.400391 37C55.700391 36.7 54.6 36.499609 53.5 37.599609C53.2 37.899609 52.900781 38.299219 52.800781 38.699219L38 81.699219C37.5 83.299219 38.300391 85 39.900391 85.5C40.200391 85.6 40.600391 85.699219 40.900391 85.699219C42.100391 85.699219 43.299219 84.899219 43.699219 83.699219L57.699219 43.099609C61.799219 43.799609 70.100781 45.1 76.800781 44.5C82.000781 44 87.300391 42.499609 92.400391 40.099609L99 46.699219C96.7 51.099219 95.300391 55.800781 94.900391 60.800781C94.200391 68.000781 95.499219 77.2 96.199219 81.5L43.400391 99.699219L72.300781 70.800781C73.500781 69.600781 73.500781 67.699609 72.300781 66.599609C71.100781 65.399609 69.199609 65.399609 68.099609 66.599609L30.199219 104.5C29.399219 105.2 29 106.09961 29 107.09961C29 108.79961 30.4 110.29961 32 110.09961C32.4 110.09961 32.7 110.00039 33 109.90039L100.40039 86.5C100.80039 86.4 101.2 86.100781 101.5 85.800781C102.6 84.700781 102.49961 83.699219 102.09961 81.699219C101.49961 78.099219 100.09922 68.6 100.69922 61.5C100.99922 57.9 101.90078 54.500781 103.30078 51.300781L109.69922 57.699219C110.19922 57.999219 110.89922 58.300781 111.69922 58.300781C112.49922 58.300781 113.20078 58.000391 113.80078 57.400391C115.00078 56.300391 115.00078 54.400781 113.80078 53.300781L85.699219 25.099609C85.099219 24.499609 84.325 24.199219 83.5625 24.199219 z M 76.175781 108.9707C75.82168 108.95332 75.462109 108.9625 75.099609 109C72.199609 109.3 69.800391 111.2 68.900391 114L66.800781 120.69922C66.800781 120.79922 66.7 120.90039 66.5 120.90039C66.3 120.90039 66.199219 120.79922 66.199219 120.69922L65.300781 119C64.200781 116.9 62.200391 115.6 59.900391 115.5C57.600391 115.4 55.399609 116.59961 54.099609 118.59961L51.199219 122C50.099219 123.3 50.3 125.19922 51.5 126.19922C52.1 126.69922 52.800391 126.90039 53.400391 126.90039C54.200391 126.90039 55.099219 126.50078 55.699219 125.80078L58.699219 122.30078C58.799219 122.20078 58.9 122.00039 59 121.90039C59.2 121.60039 59.4 121.5 59.5 121.5C59.5 121.5 59.599219 121.49922 59.699219 121.69922L60.599609 123.40039C61.799609 125.70039 64.200781 127.10039 66.800781 126.90039C69.400781 126.70039 71.600781 125 72.300781 122.5L74.400391 115.80078C74.600391 115.10078 75.100391 115 75.400391 115C75.700391 115 76.199609 114.99961 76.599609 115.59961L79.599609 121.30078C81.099609 124.10078 83.700781 125.90039 86.800781 126.40039C89.900781 126.90039 92.999219 125.89961 95.199219 123.59961C96.399219 122.39961 96.399219 120.50039 95.199219 119.40039C94.299219 118.20039 92.399219 118.20039 91.199219 119.40039C90.299219 120.30039 89.200391 120.7 87.900391 120.5C86.700391 120.3 85.699609 119.6 85.099609 118.5L82.099609 112.80078C80.874609 110.52578 78.654492 109.09238 76.175781 108.9707 z M 39 121 A 3 3 0 0 0 36 124 A 3 3 0 0 0 39 127 A 3 3 0 0 0 42 124 A 3 3 0 0 0 39 121 z" fill="#C1C1C1" />
</svg>