<?xml version="1.0" encoding="utf-8"?>
<svg xmlns="http://www.w3.org/2000/svg" viewBox="0 0 128 128" width="512" height="512">
  <path d="M4 22h60c1.66 0 3-1.34 3-3s-1.34-3-3-3H4c-1.66 0-3 1.34-3 3S2.34 22 4 22zM4 52h60c1.66 0 3-1.34 3-3s-1.34-3-3-3H4c-1.66 0-3 1.34-3 3S2.34 52 4 52zM4 82h60c1.66 0 3-1.34 3-3s-1.34-3-3-3H4c-1.66 0-3 1.34-3 3S2.34 82 4 82zM4 112h60c1.66 0 3-1.34 3-3s-1.34-3-3-3H4c-1.66 0-3 1.34-3 3S2.34 112 4 112zM121.88 86.88L107 101.76V19c0-1.66-1.34-3-3-3s-3 1.34-3 3v82.76L86.12 86.88c-1.17-1.17-3.07-1.17-4.24 0-1.17 1.17-1.17 3.07 0 4.24l20 20c.59.59 1.35.88 2.12.88s1.54-.29 2.12-.88l20-20c1.17-1.17 1.17-3.07 0-4.24C124.95 85.71 123.05 85.71 121.88 86.88z" fill="#BFBFBF" />
</svg>