<?xml version="1.0" encoding="utf-8"?>
<svg xmlns="http://www.w3.org/2000/svg" viewBox="0 0 32 32" width="512" height="512">
  <path d="M10.59375 4.1875C6.148438 6.25 3 10.796875 3 16C3 23.144531 8.855469 29 16 29C23.144531 29 29 23.144531 29 16C29 10.796875 25.851563 6.25 21.40625 4.1875L20.59375 6C24.347656 7.738281 27 11.601563 27 16C27 22.054688 22.054688 27 16 27C9.945313 27 5 22.054688 5 16C5 11.601563 7.652344 7.738281 11.40625 6 Z M 16 6.09375L15.28125 6.78125L10.28125 11.78125L11.71875 13.21875L15 9.9375L15 20L17 20L17 9.9375L20.28125 13.21875L21.71875 11.78125L16.71875 6.78125Z" fill="#D1D1D1" />
</svg>